<!-- <svg
  xmlns="http://www.w3.org/2000/svg"
  xmlns:xlink="http://www.w3.org/1999/xlink"
  version="1.1" id="Capa_1"
  x="0px" y="0px"
  viewBox="0 0 52 52"
  style="enable-background:new 0 0 52 52;"
  xml:space="preserve"
  width="60px"
  height="60px"
  class="">
  <g>
    <path
    d="M26,0C11.664,0,0,11.663,0,26s11.664,26,26,26s26-11.663,26-26S40.336,0,26,0z M38.5,28H28v11c0,1.104-0.896,2-2,2  s-2-0.896-2-2V28H13.5c-1.104,0-2-0.896-2-2s0.896-2,2-2H24V14c0-1.104,0.896-2,2-2s2,0.896,2,2v10h10.5c1.104,0,2,0.896,2,2  S39.604,28,38.5,28z"
    data-original="#000000"
    class="active-path"
    data-old_color="#E8A633"
    fill="#FFBA00"/>
  </g>
</svg> -->
<svg
  xmlns="http://www.w3.org/2000/svg"
  xmlns:xlink="http://www.w3.org/1999/xlink"
  version="1.1"
  id="Capa_1"
  x="0px"
  y="0px"
  viewBox="0 0 490.2 490.2"
  style="enable-background:new 0 0 490.2 490.2;"
  xml:space="preserve"
  width="50px"
  height="50px"
  class="">
  <g transform="matrix(0.957431 0 0 0.957431 10.4336 10.4336)">
    <g>
      <g>
        <path
          d="M418.5,418.5c95.6-95.6,95.6-251.2,0-346.8s-251.2-95.6-346.8,0s-95.6,251.2,0,346.8S322.9,514.1,418.5,418.5z M89,89    c86.1-86.1,226.1-86.1,312.2,0s86.1,226.1,0,312.2s-226.1,86.1-312.2,0S3,175.1,89,89z"
          data-original="#000000"
          class="active-path"
          data-old_color="#F7B708"
          fill="#ffc107"/>
        <path
          d="M245.1,336.9c3.4,0,6.4-1.4,8.7-3.6c2.2-2.2,3.6-5.3,3.6-8.7v-67.3h67.3c3.4,0,6.4-1.4,8.7-3.6c2.2-2.2,3.6-5.3,3.6-8.7    c0-6.8-5.5-12.3-12.2-12.2h-67.3v-67.3c0-6.8-5.5-12.3-12.2-12.2c-6.8,0-12.3,5.5-12.2,12.2v67.3h-67.3c-6.8,0-12.3,5.5-12.2,12.2    c0,6.8,5.5,12.3,12.2,12.2h67.3v67.3C232.8,331.4,238.3,336.9,245.1,336.9z"
          data-original="#000000"
          class="active-path"
          data-old_color="#F7B708"
          fill="#FFF"/>
      </g>
    </g>
  </g>
</svg>
